<svg id="visual" viewBox="0 0 900 600" width="900" height="600" xmlns="http://www.w3.org/2000/svg" xmlns:xlink="http://www.w3.org/1999/xlink" version="1.1"><g stroke-width="1" stroke-linejoin="bevel"><path d="M385.7 240L514.3 240L385.7 120Z" fill="#0e2032" stroke="#0e2032"></path><path d="M514.3 240L514.3 120L385.7 120Z" fill="#0c1726" stroke="#0c1726"></path><path d="M514.3 120L385.7 0L385.7 120Z" fill="#060b1b" stroke="#060b1b"></path><path d="M514.3 120L514.3 0L385.7 0Z" fill="#0b1423" stroke="#0b1423"></path><path d="M385.7 240L385.7 360L514.3 240Z" fill="#0e1d2e" stroke="#0e1d2e"></path><path d="M385.7 360L514.3 360L514.3 240Z" fill="#0e273a" stroke="#0e273a"></path><path d="M514.3 360L642.9 240L514.3 240Z" fill="#0b1423" stroke="#0b1423"></path><path d="M514.3 240L642.9 240L514.3 120Z" fill="#060b1b" stroke="#060b1b"></path><path d="M514.3 120L642.9 120L514.3 0Z" fill="#0e2a3e" stroke="#0e2a3e"></path><path d="M642.9 240L642.9 120L514.3 120Z" fill="#020618" stroke="#020618"></path><path d="M257.1 0L257.1 120L385.7 120Z" fill="#020618" stroke="#020618"></path><path d="M385.7 120L257.1 240L385.7 240Z" fill="#0e1d2e" stroke="#0e1d2e"></path><path d="M385.7 240L257.1 360L385.7 360Z" fill="#0e2a3e" stroke="#0e2a3e"></path><path d="M257.1 120L257.1 240L385.7 120Z" fill="#0d1a2a" stroke="#0d1a2a"></path><path d="M514.3 360L642.9 360L642.9 240Z" fill="#020618" stroke="#020618"></path><path d="M642.9 120L642.9 0L514.3 0Z" fill="#0e2032" stroke="#0e2032"></path><path d="M257.1 240L257.1 360L385.7 240Z" fill="#0e1d2e" stroke="#0e1d2e"></path><path d="M385.7 0L257.1 0L385.7 120Z" fill="#0e273a" stroke="#0e273a"></path><path d="M257.1 480L385.7 480L385.7 360Z" fill="#060b1b" stroke="#060b1b"></path><path d="M385.7 360L385.7 480L514.3 360Z" fill="#020618" stroke="#020618"></path><path d="M514.3 360L514.3 480L642.9 360Z" fill="#08101f" stroke="#08101f"></path><path d="M385.7 480L514.3 480L514.3 360Z" fill="#0c1726" stroke="#0c1726"></path><path d="M128.6 0L128.6 120L257.1 120Z" fill="#0e2032" stroke="#0e2032"></path><path d="M257.1 120L128.6 240L257.1 240Z" fill="#0b1423" stroke="#0b1423"></path><path d="M257.1 240L128.6 360L257.1 360Z" fill="#0e2032" stroke="#0e2032"></path><path d="M128.6 120L128.6 240L257.1 120Z" fill="#0b1423" stroke="#0b1423"></path><path d="M642.9 240L771.4 240L642.9 120Z" fill="#060b1b" stroke="#060b1b"></path><path d="M642.9 120L771.4 120L642.9 0Z" fill="#0e2336" stroke="#0e2336"></path><path d="M642.9 360L771.4 240L642.9 240Z" fill="#0c1726" stroke="#0c1726"></path><path d="M771.4 360L771.4 240L642.9 360Z" fill="#0c1726" stroke="#0c1726"></path><path d="M771.4 240L771.4 120L642.9 120Z" fill="#0c1726" stroke="#0c1726"></path><path d="M514.3 480L642.9 480L642.9 360Z" fill="#060b1b" stroke="#060b1b"></path><path d="M257.1 360L257.1 480L385.7 360Z" fill="#060b1b" stroke="#060b1b"></path><path d="M128.6 480L257.1 480L257.1 360Z" fill="#0d1a2a" stroke="#0d1a2a"></path><path d="M257.1 0L128.6 0L257.1 120Z" fill="#0e2032" stroke="#0e2032"></path><path d="M128.6 240L128.6 360L257.1 240Z" fill="#0e2a3e" stroke="#0e2a3e"></path><path d="M642.9 480L771.4 360L642.9 360Z" fill="#0b1423" stroke="#0b1423"></path><path d="M771.4 120L771.4 0L642.9 0Z" fill="#0e2336" stroke="#0e2336"></path><path d="M385.7 600L514.3 600L385.7 480Z" fill="#0d1a2a" stroke="#0d1a2a"></path><path d="M385.7 480L514.3 600L514.3 480Z" fill="#0e2336" stroke="#0e2336"></path><path d="M514.3 480L514.3 600L642.9 480Z" fill="#020618" stroke="#020618"></path><path d="M642.9 480L771.4 480L771.4 360Z" fill="#020618" stroke="#020618"></path><path d="M257.1 600L385.7 600L385.7 480Z" fill="#0e273a" stroke="#0e273a"></path><path d="M128.6 360L128.6 480L257.1 360Z" fill="#020618" stroke="#020618"></path><path d="M257.1 480L257.1 600L385.7 480Z" fill="#0e1d2e" stroke="#0e1d2e"></path><path d="M642.9 600L771.4 480L642.9 480Z" fill="#0e2032" stroke="#0e2032"></path><path d="M128.6 240L0 360L128.6 360Z" fill="#0c1726" stroke="#0c1726"></path><path d="M128.6 360L0 480L128.6 480Z" fill="#0e2032" stroke="#0e2032"></path><path d="M0 120L0 240L128.6 240Z" fill="#0d1a2a" stroke="#0d1a2a"></path><path d="M0 120L128.6 240L128.6 120Z" fill="#08101f" stroke="#08101f"></path><path d="M771.4 240L900 120L771.4 120Z" fill="#0d1a2a" stroke="#0d1a2a"></path><path d="M771.4 120L900 120L771.4 0Z" fill="#0b1423" stroke="#0b1423"></path><path d="M900 240L900 120L771.4 240Z" fill="#0c1726" stroke="#0c1726"></path><path d="M900 240L771.4 240L771.4 360Z" fill="#08101f" stroke="#08101f"></path><path d="M0 0L0 120L128.6 120Z" fill="#08101f" stroke="#08101f"></path><path d="M900 360L900 240L771.4 360Z" fill="#0d1a2a" stroke="#0d1a2a"></path><path d="M128.6 600L257.1 600L257.1 480Z" fill="#0e2032" stroke="#0e2032"></path><path d="M514.3 600L642.9 600L642.9 480Z" fill="#0d1a2a" stroke="#0d1a2a"></path><path d="M128.6 0L0 0L128.6 120Z" fill="#060b1b" stroke="#060b1b"></path><path d="M771.4 480L900 360L771.4 360Z" fill="#0e273a" stroke="#0e273a"></path><path d="M0 240L0 360L128.6 240Z" fill="#0d1a2a" stroke="#0d1a2a"></path><path d="M900 120L900 0L771.4 0Z" fill="#0e2a3e" stroke="#0e2a3e"></path><path d="M0 600L128.6 600L128.6 480Z" fill="#0b1423" stroke="#0b1423"></path><path d="M128.6 480L128.6 600L257.1 480Z" fill="#0e2032" stroke="#0e2032"></path><path d="M642.9 600L771.4 600L771.4 480Z" fill="#0e2a3e" stroke="#0e2a3e"></path><path d="M771.4 480L900 480L900 360Z" fill="#0e273a" stroke="#0e273a"></path><path d="M771.4 600L900 480L771.4 480Z" fill="#0e1d2e" stroke="#0e1d2e"></path><path d="M0 360L0 480L128.6 360Z" fill="#0e273a" stroke="#0e273a"></path><path d="M0 480L0 600L128.6 480Z" fill="#0e2032" stroke="#0e2032"></path><path d="M771.4 600L900 600L900 480Z" fill="#0e273a" stroke="#0e273a"></path></g></svg>