<svg id="visual" viewBox="0 0 540 960" width="540" height="960" xmlns="http://www.w3.org/2000/svg"
    xmlns:xlink="http://www.w3.org/1999/xlink" version="1.1">
    <g>
        <g transform="translate(286 598)">
            <path d="M0 -15.2L13.2 -7.6L13.2 7.6L0 15.2L-13.2 7.6L-13.2 -7.6Z" fill="#12224180"></path>
        </g>
        <g transform="translate(506 617)">
            <path d="M0 -3L2.6 -1.5L2.6 1.5L0 3L-2.6 1.5L-2.6 -1.5Z" fill="#12224180"></path>
        </g>
        <g transform="translate(72 750)">
            <path d="M0 -4L3.5 -2L3.5 2L0 4L-3.5 2L-3.5 -2Z" fill="#12224180"></path>
        </g>
        <g transform="translate(318 744)">
            <path d="M0 -11L9.5 -5.5L9.5 5.5L0 11L-9.5 5.5L-9.5 -5.5Z" fill="#12224180"></path>
        </g>
        <g transform="translate(39 196)">
            <path d="M0 -1L0.9 -0.5L0.9 0.5L0 1L-0.9 0.5L-0.9 -0.5Z" fill="#12224180"></path>
        </g>
        <g transform="translate(268 803)">
            <path d="M0 -3L2.6 -1.5L2.6 1.5L0 3L-2.6 1.5L-2.6 -1.5Z" fill="#12224180"></path>
        </g>
        <g transform="translate(60 70)">
            <path d="M0 -11L9.5 -5.5L9.5 5.5L0 11L-9.5 5.5L-9.5 -5.5Z" fill="#12224180"></path>
        </g>
        <g transform="translate(213 730)">
            <path d="M0 -10L8.7 -5L8.7 5L0 10L-8.7 5L-8.7 -5Z" fill="#12224180"></path>
        </g>
        <g transform="translate(56 553)">
            <path d="M0 -8L6.9 -4L6.9 4L0 8L-6.9 4L-6.9 -4Z" fill="#12224180"></path>
        </g>
        <g transform="translate(521 43)">
            <path d="M0 -9L7.8 -4.5L7.8 4.5L0 9L-7.8 4.5L-7.8 -4.5Z" fill="#12224180"></path>
        </g>
        <g transform="translate(112 432)">
            <path d="M0 -4L3.5 -2L3.5 2L0 4L-3.5 2L-3.5 -2Z" fill="#12224180"></path>
        </g>
        <g transform="translate(409 596)">
            <path d="M0 -4L3.5 -2L3.5 2L0 4L-3.5 2L-3.5 -2Z" fill="#12224180"></path>
        </g>
        <g transform="translate(127 739)">
            <path d="M0 -11L9.5 -5.5L9.5 5.5L0 11L-9.5 5.5L-9.5 -5.5Z" fill="#12224180"></path>
        </g>
        <g transform="translate(322 459)">
            <path d="M0 -13L11.3 -6.5L11.3 6.5L0 13L-11.3 6.5L-11.3 -6.5Z" fill="#12224180"></path>
        </g>
        <g transform="translate(58 350)">
            <path d="M0 -12L10.4 -6L10.4 6L0 12L-10.4 6L-10.4 -6Z" fill="#12224180"></path>
        </g>
        <g transform="translate(63 252)">
            <path d="M0 -6L5.2 -3L5.2 3L0 6L-5.2 3L-5.2 -3Z" fill="#12224180"></path>
        </g>
        <g transform="translate(278 354)">
            <path d="M0 -1L0.9 -0.5L0.9 0.5L0 1L-0.9 0.5L-0.9 -0.5Z" fill="#12224180"></path>
        </g>
        <g transform="translate(140 712)">
            <path d="M0 -2L1.7 -1L1.7 1L0 2L-1.7 1L-1.7 -1Z" fill="#12224180"></path>
        </g>
        <g transform="translate(276 63)">
            <path d="M0 -13L11.3 -6.5L11.3 6.5L0 13L-11.3 6.5L-11.3 -6.5Z" fill="#12224180"></path>
        </g>
        <g transform="translate(519 918)">
            <path d="M0 -7L6.1 -3.5L6.1 3.5L0 7L-6.1 3.5L-6.1 -3.5Z" fill="#12224180"></path>
        </g>
        <g transform="translate(427 479)">
            <path d="M0 -6L5.2 -3L5.2 3L0 6L-5.2 3L-5.2 -3Z" fill="#12224180"></path>
        </g>
        <g transform="translate(29 859)">
            <path d="M0 -1L0.9 -0.5L0.9 0.5L0 1L-0.9 0.5L-0.9 -0.5Z" fill="#12224180"></path>
        </g>
        <g transform="translate(85 116)">
            <path d="M0 -8L6.9 -4L6.9 4L0 8L-6.9 4L-6.9 -4Z" fill="#12224180"></path>
        </g>
        <g transform="translate(97 221)">
            <path d="M0 -3L2.6 -1.5L2.6 1.5L0 3L-2.6 1.5L-2.6 -1.5Z" fill="#12224180"></path>
        </g>
        <g transform="translate(266 391)">
            <path d="M0 -11L9.5 -5.5L9.5 5.5L0 11L-9.5 5.5L-9.5 -5.5Z" fill="#12224180"></path>
        </g>
        <g transform="translate(139 414)">
            <path d="M0 -10L8.7 -5L8.7 5L0 10L-8.7 5L-8.7 -5Z" fill="#12224180"></path>
        </g>
        <g transform="translate(343 224)">
            <path d="M0 -5L4.3 -2.5L4.3 2.5L0 5L-4.3 2.5L-4.3 -2.5Z" fill="#12224180"></path>
        </g>
        <g transform="translate(192 225)">
            <path d="M0 -5L4.3 -2.5L4.3 2.5L0 5L-4.3 2.5L-4.3 -2.5Z" fill="#12224180"></path>
        </g>
        <g transform="translate(387 884)">
            <path d="M0 -2L1.7 -1L1.7 1L0 2L-1.7 1L-1.7 -1Z" fill="#12224180"></path>
        </g>
        <g transform="translate(440 203)">
            <path d="M0 -12L10.4 -6L10.4 6L0 12L-10.4 6L-10.4 -6Z" fill="#12224180"></path>
        </g>
        <g transform="translate(62 809)">
            <path d="M0 -10L8.7 -5L8.7 5L0 10L-8.7 5L-8.7 -5Z" fill="#12224180"></path>
        </g>
        <g transform="translate(151 861)">
            <path d="M0 -8L6.9 -4L6.9 4L0 8L-6.9 4L-6.9 -4Z" fill="#12224180"></path>
        </g>
        <g transform="translate(480 522)">
            <path d="M0 -12L10.4 -6L10.4 6L0 12L-10.4 6L-10.4 -6Z" fill="#12224180"></path>
        </g>
        <g transform="translate(84 36)">
            <path d="M0 -5L4.3 -2.5L4.3 2.5L0 5L-4.3 2.5L-4.3 -2.5Z" fill="#12224180"></path>
        </g>
        <g transform="translate(419 784)">
            <path d="M0 -12L10.4 -6L10.4 6L0 12L-10.4 6L-10.4 -6Z" fill="#12224180"></path>
        </g>
        <g transform="translate(321 501)">
            <path d="M0 -14L12.1 -7L12.1 7L0 14L-12.1 7L-12.1 -7Z" fill="#12224180"></path>
        </g>
        <g transform="translate(506 474)">
            <path d="M0 -10L8.7 -5L8.7 5L0 10L-8.7 5L-8.7 -5Z" fill="#12224180"></path>
        </g>
        <g transform="translate(19 631)">
            <path d="M0 -14L12.1 -7L12.1 7L0 14L-12.1 7L-12.1 -7Z" fill="#12224180"></path>
        </g>
        <g transform="translate(360 343)">
            <path d="M0 -14L12.1 -7L12.1 7L0 14L-12.1 7L-12.1 -7Z" fill="#12224180"></path>
        </g>
        <g transform="translate(231 264)">
            <path d="M0 -7L6.1 -3.5L6.1 3.5L0 7L-6.1 3.5L-6.1 -3.5Z" fill="#12224180"></path>
        </g>
        <g transform="translate(24 704)">
            <path d="M0 -1L0.9 -0.5L0.9 0.5L0 1L-0.9 0.5L-0.9 -0.5Z" fill="#12224180"></path>
        </g>
        <g transform="translate(405 319)">
            <path d="M0 -5L4.3 -2.5L4.3 2.5L0 5L-4.3 2.5L-4.3 -2.5Z" fill="#12224180"></path>
        </g>
        <g transform="translate(230 880)">
            <path d="M0 -8L6.9 -4L6.9 4L0 8L-6.9 4L-6.9 -4Z" fill="#12224180"></path>
        </g>
        <g transform="translate(155 915)">
            <path d="M0 -6L5.2 -3L5.2 3L0 6L-5.2 3L-5.2 -3Z" fill="#12224180"></path>
        </g>
        <g transform="translate(84 400)">
            <path d="M0 -14L12.1 -7L12.1 7L0 14L-12.1 7L-12.1 -7Z" fill="#12224180"></path>
        </g>
        <g transform="translate(201 412)">
            <path d="M0 -5L4.3 -2.5L4.3 2.5L0 5L-4.3 2.5L-4.3 -2.5Z" fill="#12224180"></path>
        </g>
        <g transform="translate(190 824)">
            <path d="M0 -12L10.4 -6L10.4 6L0 12L-10.4 6L-10.4 -6Z" fill="#12224180"></path>
        </g>
        <g transform="translate(97 608)">
            <path d="M0 -3L2.6 -1.5L2.6 1.5L0 3L-2.6 1.5L-2.6 -1.5Z" fill="#12224180"></path>
        </g>
        <g transform="translate(374 178)">
            <path d="M0 -2L1.7 -1L1.7 1L0 2L-1.7 1L-1.7 -1Z" fill="#12224180"></path>
        </g>
        <g transform="translate(447 799)">
            <path d="M0 -10L8.7 -5L8.7 5L0 10L-8.7 5L-8.7 -5Z" fill="#12224180"></path>
        </g>
        <g transform="translate(457 57)">
            <path d="M0 -2L1.7 -1L1.7 1L0 2L-1.7 1L-1.7 -1Z" fill="#12224180"></path>
        </g>
        <g transform="translate(252 325)">
            <path d="M0 -1L0.9 -0.5L0.9 0.5L0 1L-0.9 0.5L-0.9 -0.5Z" fill="#12224180"></path>
        </g>
        <g transform="translate(356 635)">
            <path d="M0 -6L5.2 -3L5.2 3L0 6L-5.2 3L-5.2 -3Z" fill="#12224180"></path>
        </g>
        <g transform="translate(35 452)">
            <path d="M0 -9L7.8 -4.5L7.8 4.5L0 9L-7.8 4.5L-7.8 -4.5Z" fill="#12224180"></path>
        </g>
        <g transform="translate(489 278)">
            <path d="M0 -6L5.2 -3L5.2 3L0 6L-5.2 3L-5.2 -3Z" fill="#12224180"></path>
        </g>
        <g transform="translate(412 751)">
            <path d="M0 -8L6.9 -4L6.9 4L0 8L-6.9 4L-6.9 -4Z" fill="#12224180"></path>
        </g>
        <g transform="translate(365 578)">
            <path d="M0 -4L3.5 -2L3.5 2L0 4L-3.5 2L-3.5 -2Z" fill="#12224180"></path>
        </g>
        <g transform="translate(391 928)">
            <path d="M0 -3L2.6 -1.5L2.6 1.5L0 3L-2.6 1.5L-2.6 -1.5Z" fill="#12224180"></path>
        </g>
        <g transform="translate(331 715)">
            <path d="M0 -4L3.5 -2L3.5 2L0 4L-3.5 2L-3.5 -2Z" fill="#12224180"></path>
        </g>
        <g transform="translate(293 640)">
            <path d="M0 -1L0.9 -0.5L0.9 0.5L0 1L-0.9 0.5L-0.9 -0.5Z" fill="#12224180"></path>
        </g>
        <g transform="translate(81 676)">
            <path d="M0 -12L10.4 -6L10.4 6L0 12L-10.4 6L-10.4 -6Z" fill="#12224180"></path>
        </g>
        <g transform="translate(388 809)">
            <path d="M0 -5L4.3 -2.5L4.3 2.5L0 5L-4.3 2.5L-4.3 -2.5Z" fill="#12224180"></path>
        </g>
        <g transform="translate(417 420)">
            <path d="M0 -12L10.4 -6L10.4 6L0 12L-10.4 6L-10.4 -6Z" fill="#12224180"></path>
        </g>
        <g transform="translate(128 275)">
            <path d="M0 -14L12.1 -7L12.1 7L0 14L-12.1 7L-12.1 -7Z" fill="#12224180"></path>
        </g>
        <g transform="translate(408 851)">
            <path d="M0 -5L4.3 -2.5L4.3 2.5L0 5L-4.3 2.5L-4.3 -2.5Z" fill="#12224180"></path>
        </g>
        <g transform="translate(24 230)">
            <path d="M0 -2L1.7 -1L1.7 1L0 2L-1.7 1L-1.7 -1Z" fill="#12224180"></path>
        </g>
        <g transform="translate(431 512)">
            <path d="M0 -12L10.4 -6L10.4 6L0 12L-10.4 6L-10.4 -6Z" fill="#12224180"></path>
        </g>
        <g transform="translate(89 499)">
            <path d="M0 -6L5.2 -3L5.2 3L0 6L-5.2 3L-5.2 -3Z" fill="#12224180"></path>
        </g>
        <g transform="translate(213 507)">
            <path d="M0 -11L9.5 -5.5L9.5 5.5L0 11L-9.5 5.5L-9.5 -5.5Z" fill="#12224180"></path>
        </g>
        <g transform="translate(356 110)">
            <path d="M0 -12L10.4 -6L10.4 6L0 12L-10.4 6L-10.4 -6Z" fill="#12224180"></path>
        </g>
        <g transform="translate(376 841)">
            <path d="M0 -12L10.4 -6L10.4 6L0 12L-10.4 6L-10.4 -6Z" fill="#12224180"></path>
        </g>
        <g transform="translate(226 84)">
            <path d="M0 -8L6.9 -4L6.9 4L0 8L-6.9 4L-6.9 -4Z" fill="#12224180"></path>
        </g>
        <g transform="translate(72 889)">
            <path d="M0 -9L7.8 -4.5L7.8 4.5L0 9L-7.8 4.5L-7.8 -4.5Z" fill="#12224180"></path>
        </g>
        <g transform="translate(276 225)">
            <path d="M0 -9L7.8 -4.5L7.8 4.5L0 9L-7.8 4.5L-7.8 -4.5Z" fill="#12224180"></path>
        </g>
        <g transform="translate(241 643)">
            <path d="M0 -2L1.7 -1L1.7 1L0 2L-1.7 1L-1.7 -1Z" fill="#12224180"></path>
        </g>
        <g transform="translate(179 18)">
            <path d="M0 -12L10.4 -6L10.4 6L0 12L-10.4 6L-10.4 -6Z" fill="#12224180"></path>
        </g>
        <g transform="translate(18 417)">
            <path d="M0 -12L10.4 -6L10.4 6L0 12L-10.4 6L-10.4 -6Z" fill="#12224180"></path>
        </g>
        <g transform="translate(278 514)">
            <path d="M0 -8L6.9 -4L6.9 4L0 8L-6.9 4L-6.9 -4Z" fill="#12224180"></path>
        </g>
        <g transform="translate(229 799)">
            <path d="M0 -9L7.8 -4.5L7.8 4.5L0 9L-7.8 4.5L-7.8 -4.5Z" fill="#12224180"></path>
        </g>
        <g transform="translate(80 147)">
            <path d="M0 -5L4.3 -2.5L4.3 2.5L0 5L-4.3 2.5L-4.3 -2.5Z" fill="#12224180"></path>
        </g>
        <g transform="translate(313 313)">
            <path d="M0 -11L9.5 -5.5L9.5 5.5L0 11L-9.5 5.5L-9.5 -5.5Z" fill="#12224180"></path>
        </g>
        <g transform="translate(369 416)">
            <path d="M0 -1L0.9 -0.5L0.9 0.5L0 1L-0.9 0.5L-0.9 -0.5Z" fill="#12224180"></path>
        </g>
        <g transform="translate(87 782)">
            <path d="M0 -3L2.6 -1.5L2.6 1.5L0 3L-2.6 1.5L-2.6 -1.5Z" fill="#12224180"></path>
        </g>
        <g transform="translate(200 900)">
            <path d="M0 -11L9.5 -5.5L9.5 5.5L0 11L-9.5 5.5L-9.5 -5.5Z" fill="#12224180"></path>
        </g>
        <g transform="translate(500 878)">
            <path d="M0 -9L7.8 -4.5L7.8 4.5L0 9L-7.8 4.5L-7.8 -4.5Z" fill="#12224180"></path>
        </g>
        <g transform="translate(482 416)">
            <path d="M0 -13L11.3 -6.5L11.3 6.5L0 13L-11.3 6.5L-11.3 -6.5Z" fill="#12224180"></path>
        </g>
        <g transform="translate(482 559)">
            <path d="M0 -2L1.7 -1L1.7 1L0 2L-1.7 1L-1.7 -1Z" fill="#12224180"></path>
        </g>
        <g transform="translate(448 272)">
            <path d="M0 -5L4.3 -2.5L4.3 2.5L0 5L-4.3 2.5L-4.3 -2.5Z" fill="#12224180"></path>
        </g>
        <g transform="translate(23 584)">
            <path d="M0 -2L1.7 -1L1.7 1L0 2L-1.7 1L-1.7 -1Z" fill="#12224180"></path>
        </g>
        <g transform="translate(441 723)">
            <path d="M0 -3L2.6 -1.5L2.6 1.5L0 3L-2.6 1.5L-2.6 -1.5Z" fill="#12224180"></path>
        </g>
        <g transform="translate(440 115)">
            <path d="M0 -7L6.1 -3.5L6.1 3.5L0 7L-6.1 3.5L-6.1 -3.5Z" fill="#12224180"></path>
        </g>
        <g transform="translate(204 363)">
            <path d="M0 -3L2.6 -1.5L2.6 1.5L0 3L-2.6 1.5L-2.6 -1.5Z" fill="#12224180"></path>
        </g>
        <g transform="translate(395 653)">
            <path d="M0 -3L2.6 -1.5L2.6 1.5L0 3L-2.6 1.5L-2.6 -1.5Z" fill="#12224180"></path>
        </g>
        <g transform="translate(380 216)">
            <path d="M0 -2L1.7 -1L1.7 1L0 2L-1.7 1L-1.7 -1Z" fill="#12224180"></path>
        </g>
        <g transform="translate(184 665)">
            <path d="M0 -2L1.7 -1L1.7 1L0 2L-1.7 1L-1.7 -1Z" fill="#12224180"></path>
        </g>
        <g transform="translate(137 65)">
            <path d="M0 -8L6.9 -4L6.9 4L0 8L-6.9 4L-6.9 -4Z" fill="#12224180"></path>
        </g>
        <g transform="translate(46 609)">
            <path d="M0 -9L7.8 -4.5L7.8 4.5L0 9L-7.8 4.5L-7.8 -4.5Z" fill="#12224180"></path>
        </g>
        <g transform="translate(79 639)">
            <path d="M0 -1L0.9 -0.5L0.9 0.5L0 1L-0.9 0.5L-0.9 -0.5Z" fill="#12224180"></path>
        </g>
        <g transform="translate(167 184)">
            <path d="M0 -9L7.8 -4.5L7.8 4.5L0 9L-7.8 4.5L-7.8 -4.5Z" fill="#12224180"></path>
        </g>
        <g transform="translate(325 633)">
            <path d="M0 -4L3.5 -2L3.5 2L0 4L-3.5 2L-3.5 -2Z" fill="#12224180"></path>
        </g>
        <g transform="translate(491 934)">
            <path d="M0 -5L4.3 -2.5L4.3 2.5L0 5L-4.3 2.5L-4.3 -2.5Z" fill="#12224180"></path>
        </g>
        <g transform="translate(136 173)">
            <path d="M0 -2L1.7 -1L1.7 1L0 2L-1.7 1L-1.7 -1Z" fill="#12224180"></path>
        </g>
        <g transform="translate(147 620)">
            <path d="M0 -7L6.1 -3.5L6.1 3.5L0 7L-6.1 3.5L-6.1 -3.5Z" fill="#12224180"></path>
        </g>
        <g transform="translate(495 791)">
            <path d="M0 -6L5.2 -3L5.2 3L0 6L-5.2 3L-5.2 -3Z" fill="#12224180"></path>
        </g>
        <g transform="translate(221 125)">
            <path d="M0 -14L12.1 -7L12.1 7L0 14L-12.1 7L-12.1 -7Z" fill="#12224180"></path>
        </g>
        <g transform="translate(486 78)">
            <path d="M0 -14L12.1 -7L12.1 7L0 14L-12.1 7L-12.1 -7Z" fill="#12224180"></path>
        </g>
        <g transform="translate(400 556)">
            <path d="M0 -11L9.5 -5.5L9.5 5.5L0 11L-9.5 5.5L-9.5 -5.5Z" fill="#12224180"></path>
        </g>
        <g transform="translate(342 786)">
            <path d="M0 -9L7.8 -4.5L7.8 4.5L0 9L-7.8 4.5L-7.8 -4.5Z" fill="#12224180"></path>
        </g>
        <g transform="translate(127 522)">
            <path d="M0 -2L1.7 -1L1.7 1L0 2L-1.7 1L-1.7 -1Z" fill="#12224180"></path>
        </g>
        <g transform="translate(488 123)">
            <path d="M0 -4L3.5 -2L3.5 2L0 4L-3.5 2L-3.5 -2Z" fill="#12224180"></path>
        </g>
        <g transform="translate(286 773)">
            <path d="M0 -6L5.2 -3L5.2 3L0 6L-5.2 3L-5.2 -3Z" fill="#12224180"></path>
        </g>
        <g transform="translate(174 440)">
            <path d="M0 -13L11.3 -6.5L11.3 6.5L0 13L-11.3 6.5L-11.3 -6.5Z" fill="#12224180"></path>
        </g>
        <g transform="translate(109 698)">
            <path d="M0 -5L4.3 -2.5L4.3 2.5L0 5L-4.3 2.5L-4.3 -2.5Z" fill="#12224180"></path>
        </g>
        <g transform="translate(504 154)">
            <path d="M0 -5L4.3 -2.5L4.3 2.5L0 5L-4.3 2.5L-4.3 -2.5Z" fill="#12224180"></path>
        </g>
        <g transform="translate(166 300)">
            <path d="M0 -11L9.5 -5.5L9.5 5.5L0 11L-9.5 5.5L-9.5 -5.5Z" fill="#12224180"></path>
        </g>
        <g transform="translate(119 886)">
            <path d="M0 -9L7.8 -4.5L7.8 4.5L0 9L-7.8 4.5L-7.8 -4.5Z" fill="#12224180"></path>
        </g>
        <g transform="translate(155 545)">
            <path d="M0 -9L7.8 -4.5L7.8 4.5L0 9L-7.8 4.5L-7.8 -4.5Z" fill="#12224180"></path>
        </g>
        <g transform="translate(111 147)">
            <path d="M0 -12L10.4 -6L10.4 6L0 12L-10.4 6L-10.4 -6Z" fill="#12224180"></path>
        </g>
        <g transform="translate(520 725)">
            <path d="M0 -6L5.2 -3L5.2 3L0 6L-5.2 3L-5.2 -3Z" fill="#12224180"></path>
        </g>
        <g transform="translate(224 833)">
            <path d="M0 -5L4.3 -2.5L4.3 2.5L0 5L-4.3 2.5L-4.3 -2.5Z" fill="#12224180"></path>
        </g>
        <g transform="translate(329 174)">
            <path d="M0 -13L11.3 -6.5L11.3 6.5L0 13L-11.3 6.5L-11.3 -6.5Z" fill="#12224180"></path>
        </g>
        <g transform="translate(184 567)">
            <path d="M0 -13L11.3 -6.5L11.3 6.5L0 13L-11.3 6.5L-11.3 -6.5Z" fill="#12224180"></path>
        </g>
        <g transform="translate(442 846)">
            <path d="M0 -12L10.4 -6L10.4 6L0 12L-10.4 6L-10.4 -6Z" fill="#12224180"></path>
        </g>
        <g transform="translate(360 473)">
            <path d="M0 -6L5.2 -3L5.2 3L0 6L-5.2 3L-5.2 -3Z" fill="#12224180"></path>
        </g>
        <g transform="translate(217 18)">
            <path d="M0 -3L2.6 -1.5L2.6 1.5L0 3L-2.6 1.5L-2.6 -1.5Z" fill="#12224180"></path>
        </g>
        <g transform="translate(198 936)">
            <path d="M0 -5L4.3 -2.5L4.3 2.5L0 5L-4.3 2.5L-4.3 -2.5Z" fill="#12224180"></path>
        </g>
        <g transform="translate(195 790)">
            <path d="M0 -13L11.3 -6.5L11.3 6.5L0 13L-11.3 6.5L-11.3 -6.5Z" fill="#12224180"></path>
        </g>
        <g transform="translate(272 733)">
            <path d="M0 -14L12.1 -7L12.1 7L0 14L-12.1 7L-12.1 -7Z" fill="#12224180"></path>
        </g>
        <g transform="translate(151 798)">
            <path d="M0 -10L8.7 -5L8.7 5L0 10L-8.7 5L-8.7 -5Z" fill="#12224180"></path>
        </g>
        <g transform="translate(170 117)">
            <path d="M0 -11L9.5 -5.5L9.5 5.5L0 11L-9.5 5.5L-9.5 -5.5Z" fill="#12224180"></path>
        </g>
        <g transform="translate(517 323)">
            <path d="M0 -6L5.2 -3L5.2 3L0 6L-5.2 3L-5.2 -3Z" fill="#12224180"></path>
        </g>
        <g transform="translate(373 72)">
            <path d="M0 -1L0.9 -0.5L0.9 0.5L0 1L-0.9 0.5L-0.9 -0.5Z" fill="#12224180"></path>
        </g>
        <g transform="translate(449 654)">
            <path d="M0 -10L8.7 -5L8.7 5L0 10L-8.7 5L-8.7 -5Z" fill="#12224180"></path>
        </g>
        <g transform="translate(445 453)">
            <path d="M0 -6L5.2 -3L5.2 3L0 6L-5.2 3L-5.2 -3Z" fill="#12224180"></path>
        </g>
        <g transform="translate(144 380)">
            <path d="M0 -13L11.3 -6.5L11.3 6.5L0 13L-11.3 6.5L-11.3 -6.5Z" fill="#12224180"></path>
        </g>
        <g transform="translate(433 378)">
            <path d="M0 -13L11.3 -6.5L11.3 6.5L0 13L-11.3 6.5L-11.3 -6.5Z" fill="#12224180"></path>
        </g>
        <g transform="translate(437 238)">
            <path d="M0 -13L11.3 -6.5L11.3 6.5L0 13L-11.3 6.5L-11.3 -6.5Z" fill="#12224180"></path>
        </g>
        <g transform="translate(171 708)">
            <path d="M0 -7L6.1 -3.5L6.1 3.5L0 7L-6.1 3.5L-6.1 -3.5Z" fill="#12224180"></path>
        </g>
        <g transform="translate(497 370)">
            <path d="M0 -6L5.2 -3L5.2 3L0 6L-5.2 3L-5.2 -3Z" fill="#12224180"></path>
        </g>
        <g transform="translate(128 20)">
            <path d="M0 -12L10.4 -6L10.4 6L0 12L-10.4 6L-10.4 -6Z" fill="#12224180"></path>
        </g>
        <g transform="translate(21 275)">
            <path d="M0 -14L12.1 -7L12.1 7L0 14L-12.1 7L-12.1 -7Z" fill="#12224180"></path>
        </g>
        <g transform="translate(490 34)">
            <path d="M0 -3L2.6 -1.5L2.6 1.5L0 3L-2.6 1.5L-2.6 -1.5Z" fill="#12224180"></path>
        </g>
        <g transform="translate(234 572)">
            <path d="M0 -11L9.5 -5.5L9.5 5.5L0 11L-9.5 5.5L-9.5 -5.5Z" fill="#12224180"></path>
        </g>
        <g transform="translate(379 265)">
            <path d="M0 -14L12.1 -7L12.1 7L0 14L-12.1 7L-12.1 -7Z" fill="#12224180"></path>
        </g>
        <g transform="translate(446 897)">
            <path d="M0 -13L11.3 -6.5L11.3 6.5L0 13L-11.3 6.5L-11.3 -6.5Z" fill="#12224180"></path>
        </g>
        <g transform="translate(142 137)">
            <path d="M0 -10L8.7 -5L8.7 5L0 10L-8.7 5L-8.7 -5Z" fill="#12224180"></path>
        </g>
        <g transform="translate(22 119)">
            <path d="M0 -9L7.8 -4.5L7.8 4.5L0 9L-7.8 4.5L-7.8 -4.5Z" fill="#12224180"></path>
        </g>
        <g transform="translate(469 323)">
            <path d="M0 -2L1.7 -1L1.7 1L0 2L-1.7 1L-1.7 -1Z" fill="#12224180"></path>
        </g>
        <g transform="translate(476 242)">
            <path d="M0 -13L11.3 -6.5L11.3 6.5L0 13L-11.3 6.5L-11.3 -6.5Z" fill="#12224180"></path>
        </g>
        <g transform="translate(18 536)">
            <path d="M0 -12L10.4 -6L10.4 6L0 12L-10.4 6L-10.4 -6Z" fill="#12224180"></path>
        </g>
        <g transform="translate(159 220)">
            <path d="M0 -8L6.9 -4L6.9 4L0 8L-6.9 4L-6.9 -4Z" fill="#12224180"></path>
        </g>
        <g transform="translate(96 828)">
            <path d="M0 -13L11.3 -6.5L11.3 6.5L0 13L-11.3 6.5L-11.3 -6.5Z" fill="#12224180"></path>
        </g>
        <g transform="translate(231 695)">
            <path d="M0 -5L4.3 -2.5L4.3 2.5L0 5L-4.3 2.5L-4.3 -2.5Z" fill="#12224180"></path>
        </g>
        <g transform="translate(399 33)">
            <path d="M0 -9L7.8 -4.5L7.8 4.5L0 9L-7.8 4.5L-7.8 -4.5Z" fill="#12224180"></path>
        </g>
        <g transform="translate(93 289)">
            <path d="M0 -9L7.8 -4.5L7.8 4.5L0 9L-7.8 4.5L-7.8 -4.5Z" fill="#12224180"></path>
        </g>
        <g transform="translate(275 266)">
            <path d="M0 -3L2.6 -1.5L2.6 1.5L0 3L-2.6 1.5L-2.6 -1.5Z" fill="#12224180"></path>
        </g>
        <g transform="translate(22 377)">
            <path d="M0 -11L9.5 -5.5L9.5 5.5L0 11L-9.5 5.5L-9.5 -5.5Z" fill="#12224180"></path>
        </g>
        <g transform="translate(110 661)">
            <path d="M0 -10L8.7 -5L8.7 5L0 10L-8.7 5L-8.7 -5Z" fill="#12224180"></path>
        </g>
        <g transform="translate(375 608)">
            <path d="M0 -12L10.4 -6L10.4 6L0 12L-10.4 6L-10.4 -6Z" fill="#12224180"></path>
        </g>
        <g transform="translate(333 27)">
            <path d="M0 -13L11.3 -6.5L11.3 6.5L0 13L-11.3 6.5L-11.3 -6.5Z" fill="#12224180"></path>
        </g>
        <g transform="translate(270 851)">
            <path d="M0 -7L6.1 -3.5L6.1 3.5L0 7L-6.1 3.5L-6.1 -3.5Z" fill="#12224180"></path>
        </g>
        <g transform="translate(259 107)">
            <path d="M0 -4L3.5 -2L3.5 2L0 4L-3.5 2L-3.5 -2Z" fill="#12224180"></path>
        </g>
        <g transform="translate(44 488)">
            <path d="M0 -10L8.7 -5L8.7 5L0 10L-8.7 5L-8.7 -5Z" fill="#12224180"></path>
        </g>
        <g transform="translate(320 401)">
            <path d="M0 -12L10.4 -6L10.4 6L0 12L-10.4 6L-10.4 -6Z" fill="#12224180"></path>
        </g>
        <g transform="translate(370 704)">
            <path d="M0 -3L2.6 -1.5L2.6 1.5L0 3L-2.6 1.5L-2.6 -1.5Z" fill="#12224180"></path>
        </g>
        <g transform="translate(319 858)">
            <path d="M0 -1L0.9 -0.5L0.9 0.5L0 1L-0.9 0.5L-0.9 -0.5Z" fill="#12224180"></path>
        </g>
        <g transform="translate(324 911)">
            <path d="M0 -14L12.1 -7L12.1 7L0 14L-12.1 7L-12.1 -7Z" fill="#12224180"></path>
        </g>
        <g transform="translate(270 181)">
            <path d="M0 -4L3.5 -2L3.5 2L0 4L-3.5 2L-3.5 -2Z" fill="#12224180"></path>
        </g>
        <g transform="translate(102 177)">
            <path d="M0 -14L12.1 -7L12.1 7L0 14L-12.1 7L-12.1 -7Z" fill="#12224180"></path>
        </g>
        <g transform="translate(320 827)">
            <path d="M0 -6L5.2 -3L5.2 3L0 6L-5.2 3L-5.2 -3Z" fill="#12224180"></path>
        </g>
        <g transform="translate(57 721)">
            <path d="M0 -3L2.6 -1.5L2.6 1.5L0 3L-2.6 1.5L-2.6 -1.5Z" fill="#12224180"></path>
        </g>
        <g transform="translate(257 439)">
            <path d="M0 -12L10.4 -6L10.4 6L0 12L-10.4 6L-10.4 -6Z" fill="#12224180"></path>
        </g>
        <g transform="translate(174 747)">
            <path d="M0 -2L1.7 -1L1.7 1L0 2L-1.7 1L-1.7 -1Z" fill="#12224180"></path>
        </g>
        <g transform="translate(53 296)">
            <path d="M0 -3L2.6 -1.5L2.6 1.5L0 3L-2.6 1.5L-2.6 -1.5Z" fill="#12224180"></path>
        </g>
        <g transform="translate(81 439)">
            <path d="M0 -8L6.9 -4L6.9 4L0 8L-6.9 4L-6.9 -4Z" fill="#12224180"></path>
        </g>
        <g transform="translate(115 367)">
            <path d="M0 -11L9.5 -5.5L9.5 5.5L0 11L-9.5 5.5L-9.5 -5.5Z" fill="#12224180"></path>
        </g>
        <g transform="translate(524 450)">
            <path d="M0 -6L5.2 -3L5.2 3L0 6L-5.2 3L-5.2 -3Z" fill="#12224180"></path>
        </g>
        <g transform="translate(247 751)">
            <path d="M0 -3L2.6 -1.5L2.6 1.5L0 3L-2.6 1.5L-2.6 -1.5Z" fill="#12224180"></path>
        </g>
        <g transform="translate(294 922)">
            <path d="M0 -8L6.9 -4L6.9 4L0 8L-6.9 4L-6.9 -4Z" fill="#12224180"></path>
        </g>
        <g transform="translate(196 636)">
            <path d="M0 -9L7.8 -4.5L7.8 4.5L0 9L-7.8 4.5L-7.8 -4.5Z" fill="#12224180"></path>
        </g>
        <g transform="translate(174 480)">
            <path d="M0 -1L0.9 -0.5L0.9 0.5L0 1L-0.9 0.5L-0.9 -0.5Z" fill="#12224180"></path>
        </g>
        <g transform="translate(393 152)">
            <path d="M0 -11L9.5 -5.5L9.5 5.5L0 11L-9.5 5.5L-9.5 -5.5Z" fill="#12224180"></path>
        </g>
        <g transform="translate(353 540)">
            <path d="M0 -10L8.7 -5L8.7 5L0 10L-8.7 5L-8.7 -5Z" fill="#12224180"></path>
        </g>
        <g transform="translate(459 168)">
            <path d="M0 -9L7.8 -4.5L7.8 4.5L0 9L-7.8 4.5L-7.8 -4.5Z" fill="#12224180"></path>
        </g>
        <g transform="translate(405 248)">
            <path d="M0 -12L10.4 -6L10.4 6L0 12L-10.4 6L-10.4 -6Z" fill="#12224180"></path>
        </g>
        <g transform="translate(373 501)">
            <path d="M0 -7L6.1 -3.5L6.1 3.5L0 7L-6.1 3.5L-6.1 -3.5Z" fill="#12224180"></path>
        </g>
        <g transform="translate(192 261)">
            <path d="M0 -12L10.4 -6L10.4 6L0 12L-10.4 6L-10.4 -6Z" fill="#12224180"></path>
        </g>
        <g transform="translate(422 695)">
            <path d="M0 -6L5.2 -3L5.2 3L0 6L-5.2 3L-5.2 -3Z" fill="#12224180"></path>
        </g>
        <g transform="translate(222 320)">
            <path d="M0 -8L6.9 -4L6.9 4L0 8L-6.9 4L-6.9 -4Z" fill="#12224180"></path>
        </g>
        <g transform="translate(55 659)">
            <path d="M0 -4L3.5 -2L3.5 2L0 4L-3.5 2L-3.5 -2Z" fill="#12224180"></path>
        </g>
        <g transform="translate(306 141)">
            <path d="M0 -7L6.1 -3.5L6.1 3.5L0 7L-6.1 3.5L-6.1 -3.5Z" fill="#12224180"></path>
        </g>
        <g transform="translate(409 285)">
            <path d="M0 -7L6.1 -3.5L6.1 3.5L0 7L-6.1 3.5L-6.1 -3.5Z" fill="#12224180"></path>
        </g>
        <g transform="translate(524 546)">
            <path d="M0 -2L1.7 -1L1.7 1L0 2L-1.7 1L-1.7 -1Z" fill="#12224180"></path>
        </g>
        <g transform="translate(429 543)">
            <path d="M0 -2L1.7 -1L1.7 1L0 2L-1.7 1L-1.7 -1Z" fill="#12224180"></path>
        </g>
        <g transform="translate(112 577)">
            <path d="M0 -1L0.9 -0.5L0.9 0.5L0 1L-0.9 0.5L-0.9 -0.5Z" fill="#12224180"></path>
        </g>
        <g transform="translate(453 608)">
            <path d="M0 -7L6.1 -3.5L6.1 3.5L0 7L-6.1 3.5L-6.1 -3.5Z" fill="#12224180"></path>
        </g>
        <g transform="translate(20 792)">
            <path d="M0 -9L7.8 -4.5L7.8 4.5L0 9L-7.8 4.5L-7.8 -4.5Z" fill="#12224180"></path>
        </g>
        <g transform="translate(478 487)">
            <path d="M0 -13L11.3 -6.5L11.3 6.5L0 13L-11.3 6.5L-11.3 -6.5Z" fill="#12224180"></path>
        </g>
        <g transform="translate(120 99)">
            <path d="M0 -11L9.5 -5.5L9.5 5.5L0 11L-9.5 5.5L-9.5 -5.5Z" fill="#12224180"></path>
        </g>
        <g transform="translate(200 294)">
            <path d="M0 -10L8.7 -5L8.7 5L0 10L-8.7 5L-8.7 -5Z" fill="#12224180"></path>
        </g>
        <g transform="translate(481 690)">
            <path d="M0 -7L6.1 -3.5L6.1 3.5L0 7L-6.1 3.5L-6.1 -3.5Z" fill="#12224180"></path>
        </g>
        <g transform="translate(153 674)">
            <path d="M0 -2L1.7 -1L1.7 1L0 2L-1.7 1L-1.7 -1Z" fill="#12224180"></path>
        </g>
        <g transform="translate(193 530)">
            <path d="M0 -10L8.7 -5L8.7 5L0 10L-8.7 5L-8.7 -5Z" fill="#12224180"></path>
        </g>
        <g transform="translate(204 856)">
            <path d="M0 -14L12.1 -7L12.1 7L0 14L-12.1 7L-12.1 -7Z" fill="#12224180"></path>
        </g>
        <g transform="translate(237 47)">
            <path d="M0 -10L8.7 -5L8.7 5L0 10L-8.7 5L-8.7 -5Z" fill="#12224180"></path>
        </g>
        <g transform="translate(356 665)">
            <path d="M0 -8L6.9 -4L6.9 4L0 8L-6.9 4L-6.9 -4Z" fill="#12224180"></path>
        </g>
        <g transform="translate(508 818)">
            <path d="M0 -14L12.1 -7L12.1 7L0 14L-12.1 7L-12.1 -7Z" fill="#12224180"></path>
        </g>
        <g transform="translate(330 356)">
            <path d="M0 -6L5.2 -3L5.2 3L0 6L-5.2 3L-5.2 -3Z" fill="#12224180"></path>
        </g>
        <g transform="translate(321 59)">
            <path d="M0 -10L8.7 -5L8.7 5L0 10L-8.7 5L-8.7 -5Z" fill="#12224180"></path>
        </g>
        <g transform="translate(513 583)">
            <path d="M0 -12L10.4 -6L10.4 6L0 12L-10.4 6L-10.4 -6Z" fill="#12224180"></path>
        </g>
        <g transform="translate(521 120)">
            <path d="M0 -12L10.4 -6L10.4 6L0 12L-10.4 6L-10.4 -6Z" fill="#12224180"></path>
        </g>
        <g transform="translate(268 566)">
            <path d="M0 -13L11.3 -6.5L11.3 6.5L0 13L-11.3 6.5L-11.3 -6.5Z" fill="#12224180"></path>
        </g>
        <g transform="translate(510 508)">
            <path d="M0 -7L6.1 -3.5L6.1 3.5L0 7L-6.1 3.5L-6.1 -3.5Z" fill="#12224180"></path>
        </g>
        <g transform="translate(22 929)">
            <path d="M0 -4L3.5 -2L3.5 2L0 4L-3.5 2L-3.5 -2Z" fill="#12224180"></path>
        </g>
        <g transform="translate(27 758)">
            <path d="M0 -1L0.9 -0.5L0.9 0.5L0 1L-0.9 0.5L-0.9 -0.5Z" fill="#12224180"></path>
        </g>
        <g transform="translate(140 244)">
            <path d="M0 -13L11.3 -6.5L11.3 6.5L0 13L-11.3 6.5L-11.3 -6.5Z" fill="#12224180"></path>
        </g>
        <g transform="translate(333 286)">
            <path d="M0 -14L12.1 -7L12.1 7L0 14L-12.1 7L-12.1 -7Z" fill="#12224180"></path>
        </g>
        <g transform="translate(114 473)">
            <path d="M0 -14L12.1 -7L12.1 7L0 14L-12.1 7L-12.1 -7Z" fill="#12224180"></path>
        </g>
        <g transform="translate(509 231)">
            <path d="M0 -1L0.9 -0.5L0.9 0.5L0 1L-0.9 0.5L-0.9 -0.5Z" fill="#12224180"></path>
        </g>
        <g transform="translate(297 699)">
            <path d="M0 -14L12.1 -7L12.1 7L0 14L-12.1 7L-12.1 -7Z" fill="#12224180"></path>
        </g>
        <g transform="translate(272 664)">
            <path d="M0 -13L11.3 -6.5L11.3 6.5L0 13L-11.3 6.5L-11.3 -6.5Z" fill="#12224180"></path>
        </g>
        <g transform="translate(26 313)">
            <path d="M0 -6L5.2 -3L5.2 3L0 6L-5.2 3L-5.2 -3Z" fill="#12224180"></path>
        </g>
        <g transform="translate(454 765)">
            <path d="M0 -6L5.2 -3L5.2 3L0 6L-5.2 3L-5.2 -3Z" fill="#12224180"></path>
        </g>
        <g transform="translate(243 482)">
            <path d="M0 -9L7.8 -4.5L7.8 4.5L0 9L-7.8 4.5L-7.8 -4.5Z" fill="#12224180"></path>
        </g>
        <g transform="translate(103 60)">
            <path d="M0 -1L0.9 -0.5L0.9 0.5L0 1L-0.9 0.5L-0.9 -0.5Z" fill="#12224180"></path>
        </g>
        <g transform="translate(246 144)">
            <path d="M0 -13L11.3 -6.5L11.3 6.5L0 13L-11.3 6.5L-11.3 -6.5Z" fill="#12224180"></path>
        </g>
        <g transform="translate(499 847)">
            <path d="M0 -9L7.8 -4.5L7.8 4.5L0 9L-7.8 4.5L-7.8 -4.5Z" fill="#12224180"></path>
        </g>
        <g transform="translate(515 262)">
            <path d="M0 -6L5.2 -3L5.2 3L0 6L-5.2 3L-5.2 -3Z" fill="#12224180"></path>
        </g>
        <g transform="translate(450 405)">
            <path d="M0 -7L6.1 -3.5L6.1 3.5L0 7L-6.1 3.5L-6.1 -3.5Z" fill="#12224180"></path>
        </g>
        <g transform="translate(375 770)">
            <path d="M0 -2L1.7 -1L1.7 1L0 2L-1.7 1L-1.7 -1Z" fill="#12224180"></path>
        </g>
        <g transform="translate(363 943)">
            <path d="M0 -11L9.5 -5.5L9.5 5.5L0 11L-9.5 5.5L-9.5 -5.5Z" fill="#12224180"></path>
        </g>
        <g transform="translate(96 253)">
            <path d="M0 -6L5.2 -3L5.2 3L0 6L-5.2 3L-5.2 -3Z" fill="#12224180"></path>
        </g>
        <g transform="translate(51 422)">
            <path d="M0 -1L0.9 -0.5L0.9 0.5L0 1L-0.9 0.5L-0.9 -0.5Z" fill="#12224180"></path>
        </g>
        <g transform="translate(476 196)">
            <path d="M0 -9L7.8 -4.5L7.8 4.5L0 9L-7.8 4.5L-7.8 -4.5Z" fill="#12224180"></path>
        </g>
        <g transform="translate(409 192)">
            <path d="M0 -8L6.9 -4L6.9 4L0 8L-6.9 4L-6.9 -4Z" fill="#12224180"></path>
        </g>
        <g transform="translate(82 531)">
            <path d="M0 -11L9.5 -5.5L9.5 5.5L0 11L-9.5 5.5L-9.5 -5.5Z" fill="#12224180"></path>
        </g>
        <g transform="translate(199 595)">
            <path d="M0 -10L8.7 -5L8.7 5L0 10L-8.7 5L-8.7 -5Z" fill="#12224180"></path>
        </g>
        <g transform="translate(510 185)">
            <path d="M0 -11L9.5 -5.5L9.5 5.5L0 11L-9.5 5.5L-9.5 -5.5Z" fill="#12224180"></path>
        </g>
        <g transform="translate(433 37)">
            <path d="M0 -8L6.9 -4L6.9 4L0 8L-6.9 4L-6.9 -4Z" fill="#12224180"></path>
        </g>
        <g transform="translate(426 78)">
            <path d="M0 -9L7.8 -4.5L7.8 4.5L0 9L-7.8 4.5L-7.8 -4.5Z" fill="#12224180"></path>
        </g>
        <g transform="translate(152 588)">
            <path d="M0 -9L7.8 -4.5L7.8 4.5L0 9L-7.8 4.5L-7.8 -4.5Z" fill="#12224180"></path>
        </g>
        <g transform="translate(229 534)">
            <path d="M0 -8L6.9 -4L6.9 4L0 8L-6.9 4L-6.9 -4Z" fill="#12224180"></path>
        </g>
        <g transform="translate(509 401)">
            <path d="M0 -8L6.9 -4L6.9 4L0 8L-6.9 4L-6.9 -4Z" fill="#12224180"></path>
        </g>
        <g transform="translate(492 742)">
            <path d="M0 -8L6.9 -4L6.9 4L0 8L-6.9 4L-6.9 -4Z" fill="#12224180"></path>
        </g>
        <g transform="translate(98 911)">
            <path d="M0 -11L9.5 -5.5L9.5 5.5L0 11L-9.5 5.5L-9.5 -5.5Z" fill="#12224180"></path>
        </g>
        <g transform="translate(185 69)">
            <path d="M0 -14L12.1 -7L12.1 7L0 14L-12.1 7L-12.1 -7Z" fill="#12224180"></path>
        </g>
        <g transform="translate(239 919)">
            <path d="M0 -9L7.8 -4.5L7.8 4.5L0 9L-7.8 4.5L-7.8 -4.5Z" fill="#12224180"></path>
        </g>
        <g transform="translate(230 609)">
            <path d="M0 -6L5.2 -3L5.2 3L0 6L-5.2 3L-5.2 -3Z" fill="#12224180"></path>
        </g>
        <g transform="translate(120 939)">
            <path d="M0 -6L5.2 -3L5.2 3L0 6L-5.2 3L-5.2 -3Z" fill="#12224180"></path>
        </g>
        <g transform="translate(325 557)">
            <path d="M0 -13L11.3 -6.5L11.3 6.5L0 13L-11.3 6.5L-11.3 -6.5Z" fill="#12224180"></path>
        </g>
        <g transform="translate(23 80)">
            <path d="M0 -9L7.8 -4.5L7.8 4.5L0 9L-7.8 4.5L-7.8 -4.5Z" fill="#12224180"></path>
        </g>
        <g transform="translate(214 186)">
            <path d="M0 -1L0.9 -0.5L0.9 0.5L0 1L-0.9 0.5L-0.9 -0.5Z" fill="#12224180"></path>
        </g>
        <g transform="translate(279 31)">
            <path d="M0 -10L8.7 -5L8.7 5L0 10L-8.7 5L-8.7 -5Z" fill="#12224180"></path>
        </g>
        <g transform="translate(36 47)">
            <path d="M0 -8L6.9 -4L6.9 4L0 8L-6.9 4L-6.9 -4Z" fill="#12224180"></path>
        </g>
        <g transform="translate(522 665)">
            <path d="M0 -13L11.3 -6.5L11.3 6.5L0 13L-11.3 6.5L-11.3 -6.5Z" fill="#12224180"></path>
        </g>
        <g transform="translate(159 346)">
            <path d="M0 -2L1.7 -1L1.7 1L0 2L-1.7 1L-1.7 -1Z" fill="#12224180"></path>
        </g>
        <g transform="translate(72 192)">
            <path d="M0 -11L9.5 -5.5L9.5 5.5L0 11L-9.5 5.5L-9.5 -5.5Z" fill="#12224180"></path>
        </g>
        <g transform="translate(397 722)">
            <path d="M0 -5L4.3 -2.5L4.3 2.5L0 5L-4.3 2.5L-4.3 -2.5Z" fill="#12224180"></path>
        </g>
        <g transform="translate(168 944)">
            <path d="M0 -7L6.1 -3.5L6.1 3.5L0 7L-6.1 3.5L-6.1 -3.5Z" fill="#12224180"></path>
        </g>
        <g transform="translate(363 43)">
            <path d="M0 -6L5.2 -3L5.2 3L0 6L-5.2 3L-5.2 -3Z" fill="#12224180"></path>
        </g>
        <g transform="translate(280 301)">
            <path d="M0 -9L7.8 -4.5L7.8 4.5L0 9L-7.8 4.5L-7.8 -4.5Z" fill="#12224180"></path>
        </g>
        <g transform="translate(295 105)">
            <path d="M0 -12L10.4 -6L10.4 6L0 12L-10.4 6L-10.4 -6Z" fill="#12224180"></path>
        </g>
        <g transform="translate(481 447)">
            <path d="M0 -9L7.8 -4.5L7.8 4.5L0 9L-7.8 4.5L-7.8 -4.5Z" fill="#12224180"></path>
        </g>
        <g transform="translate(403 358)">
            <path d="M0 -14L12.1 -7L12.1 7L0 14L-12.1 7L-12.1 -7Z" fill="#12224180"></path>
        </g>
        <g transform="translate(83 858)">
            <path d="M0 -6L5.2 -3L5.2 3L0 6L-5.2 3L-5.2 -3Z" fill="#12224180"></path>
        </g>
        <g transform="translate(48 158)">
            <path d="M0 -1L0.9 -0.5L0.9 0.5L0 1L-0.9 0.5L-0.9 -0.5Z" fill="#12224180"></path>
        </g>
        <g transform="translate(258 894)">
            <path d="M0 -6L5.2 -3L5.2 3L0 6L-5.2 3L-5.2 -3Z" fill="#12224180"></path>
        </g>
        <g transform="translate(178 154)">
            <path d="M0 -13L11.3 -6.5L11.3 6.5L0 13L-11.3 6.5L-11.3 -6.5Z" fill="#12224180"></path>
        </g>
        <g transform="translate(124 306)">
            <path d="M0 -8L6.9 -4L6.9 4L0 8L-6.9 4L-6.9 -4Z" fill="#12224180"></path>
        </g>
        <g transform="translate(303 886)">
            <path d="M0 -14L12.1 -7L12.1 7L0 14L-12.1 7L-12.1 -7Z" fill="#12224180"></path>
        </g>
        <g transform="translate(122 787)">
            <path d="M0 -12L10.4 -6L10.4 6L0 12L-10.4 6L-10.4 -6Z" fill="#12224180"></path>
        </g>
        <g transform="translate(296 424)">
            <path d="M0 -6L5.2 -3L5.2 3L0 6L-5.2 3L-5.2 -3Z" fill="#12224180"></path>
        </g>
        <g transform="translate(288 480)">
            <path d="M0 -8L6.9 -4L6.9 4L0 8L-6.9 4L-6.9 -4Z" fill="#12224180"></path>
        </g>
        <g transform="translate(352 876)">
            <path d="M0 -2L1.7 -1L1.7 1L0 2L-1.7 1L-1.7 -1Z" fill="#12224180"></path>
        </g>
        <g transform="translate(207 463)">
            <path d="M0 -12L10.4 -6L10.4 6L0 12L-10.4 6L-10.4 -6Z" fill="#12224180"></path>
        </g>
        <g transform="translate(376 304)">
            <path d="M0 -2L1.7 -1L1.7 1L0 2L-1.7 1L-1.7 -1Z" fill="#12224180"></path>
        </g>
        <g transform="translate(448 933)">
            <path d="M0 -14L12.1 -7L12.1 7L0 14L-12.1 7L-12.1 -7Z" fill="#12224180"></path>
        </g>
        <g transform="translate(238 410)">
            <path d="M0 -7L6.1 -3.5L6.1 3.5L0 7L-6.1 3.5L-6.1 -3.5Z" fill="#12224180"></path>
        </g>
        <g transform="translate(238 206)">
            <path d="M0 -9L7.8 -4.5L7.8 4.5L0 9L-7.8 4.5L-7.8 -4.5Z" fill="#12224180"></path>
        </g>
        <g transform="translate(395 460)">
            <path d="M0 -13L11.3 -6.5L11.3 6.5L0 13L-11.3 6.5L-11.3 -6.5Z" fill="#12224180"></path>
        </g>
        <g transform="translate(235 359)">
            <path d="M0 -4L3.5 -2L3.5 2L0 4L-3.5 2L-3.5 -2Z" fill="#12224180"></path>
        </g>
        <g transform="translate(334 430)">
            <path d="M0 -7L6.1 -3.5L6.1 3.5L0 7L-6.1 3.5L-6.1 -3.5Z" fill="#12224180"></path>
        </g>
        <g transform="translate(303 202)">
            <path d="M0 -9L7.8 -4.5L7.8 4.5L0 9L-7.8 4.5L-7.8 -4.5Z" fill="#12224180"></path>
        </g>
        <g transform="translate(407 124)">
            <path d="M0 -5L4.3 -2.5L4.3 2.5L0 5L-4.3 2.5L-4.3 -2.5Z" fill="#12224180"></path>
        </g>
        <g transform="translate(331 598)">
            <path d="M0 -2L1.7 -1L1.7 1L0 2L-1.7 1L-1.7 -1Z" fill="#12224180"></path>
        </g>
        <g transform="translate(90 334)">
            <path d="M0 -5L4.3 -2.5L4.3 2.5L0 5L-4.3 2.5L-4.3 -2.5Z" fill="#12224180"></path>
        </g>
        <g transform="translate(268 623)">
            <path d="M0 -11L9.5 -5.5L9.5 5.5L0 11L-9.5 5.5L-9.5 -5.5Z" fill="#12224180"></path>
        </g>
        <g transform="translate(121 852)">
            <path d="M0 -9L7.8 -4.5L7.8 4.5L0 9L-7.8 4.5L-7.8 -4.5Z" fill="#12224180"></path>
        </g>
        <g transform="translate(206 46)">
            <path d="M0 -12L10.4 -6L10.4 6L0 12L-10.4 6L-10.4 -6Z" fill="#12224180"></path>
        </g>
        <g transform="translate(143 456)">
            <path d="M0 -13L11.3 -6.5L11.3 6.5L0 13L-11.3 6.5L-11.3 -6.5Z" fill="#12224180"></path>
        </g>
        <g transform="translate(362 742)">
            <path d="M0 -10L8.7 -5L8.7 5L0 10L-8.7 5L-8.7 -5Z" fill="#12224180"></path>
        </g>
        <g transform="translate(72 942)">
            <path d="M0 -1L0.9 -0.5L0.9 0.5L0 1L-0.9 0.5L-0.9 -0.5Z" fill="#12224180"></path>
        </g>
        <g transform="translate(347 145)">
            <path d="M0 -13L11.3 -6.5L11.3 6.5L0 13L-11.3 6.5L-11.3 -6.5Z" fill="#12224180"></path>
        </g>
        <g transform="translate(18 895)">
            <path d="M0 -7L6.1 -3.5L6.1 3.5L0 7L-6.1 3.5L-6.1 -3.5Z" fill="#12224180"></path>
        </g>
        <g transform="translate(517 85)">
            <path d="M0 -13L11.3 -6.5L11.3 6.5L0 13L-11.3 6.5L-11.3 -6.5Z" fill="#12224180"></path>
        </g>
        <g transform="translate(469 869)">
            <path d="M0 -3L2.6 -1.5L2.6 1.5L0 3L-2.6 1.5L-2.6 -1.5Z" fill="#12224180"></path>
        </g>
        <g transform="translate(248 291)">
            <path d="M0 -2L1.7 -1L1.7 1L0 2L-1.7 1L-1.7 -1Z" fill="#12224180"></path>
        </g>
        <g transform="translate(55 777)">
            <path d="M0 -5L4.3 -2.5L4.3 2.5L0 5L-4.3 2.5L-4.3 -2.5Z" fill="#12224180"></path>
        </g>
        <g transform="translate(309 530)">
            <path d="M0 -9L7.8 -4.5L7.8 4.5L0 9L-7.8 4.5L-7.8 -4.5Z" fill="#12224180"></path>
        </g>
        <g transform="translate(309 797)">
            <path d="M0 -14L12.1 -7L12.1 7L0 14L-12.1 7L-12.1 -7Z" fill="#12224180"></path>
        </g>
        <g transform="translate(221 767)">
            <path d="M0 -14L12.1 -7L12.1 7L0 14L-12.1 7L-12.1 -7Z" fill="#12224180"></path>
        </g>
        <g transform="translate(490 648)">
            <path d="M0 -14L12.1 -7L12.1 7L0 14L-12.1 7L-12.1 -7Z" fill="#12224180"></path>
        </g>
        <g transform="translate(424 628)">
            <path d="M0 -10L8.7 -5L8.7 5L0 10L-8.7 5L-8.7 -5Z" fill="#12224180"></path>
        </g>
        <g transform="translate(265 697)">
            <path d="M0 -13L11.3 -6.5L11.3 6.5L0 13L-11.3 6.5L-11.3 -6.5Z" fill="#12224180"></path>
        </g>
        <g transform="translate(175 385)">
            <path d="M0 -8L6.9 -4L6.9 4L0 8L-6.9 4L-6.9 -4Z" fill="#12224180"></path>
        </g>
        <g transform="translate(16 671)">
            <path d="M0 -5L4.3 -2.5L4.3 2.5L0 5L-4.3 2.5L-4.3 -2.5Z" fill="#12224180"></path>
        </g>
        <g transform="translate(423 162)">
            <path d="M0 -4L3.5 -2L3.5 2L0 4L-3.5 2L-3.5 -2Z" fill="#12224180"></path>
        </g>
        <g transform="translate(458 359)">
            <path d="M0 -14L12.1 -7L12.1 7L0 14L-12.1 7L-12.1 -7Z" fill="#12224180"></path>
        </g>
        <g transform="translate(477 823)">
            <path d="M0 -4L3.5 -2L3.5 2L0 4L-3.5 2L-3.5 -2Z" fill="#12224180"></path>
        </g>
        <g transform="translate(440 577)">
            <path d="M0 -13L11.3 -6.5L11.3 6.5L0 13L-11.3 6.5L-11.3 -6.5Z" fill="#12224180"></path>
        </g>
        <g transform="translate(311 667)">
            <path d="M0 -6L5.2 -3L5.2 3L0 6L-5.2 3L-5.2 -3Z" fill="#12224180"></path>
        </g>
        <g transform="translate(311 246)">
            <path d="M0 -8L6.9 -4L6.9 4L0 8L-6.9 4L-6.9 -4Z" fill="#12224180"></path>
        </g>
        <g transform="translate(48 910)">
            <path d="M0 -12L10.4 -6L10.4 6L0 12L-10.4 6L-10.4 -6Z" fill="#12224180"></path>
        </g>
        <g transform="translate(217 665)">
            <path d="M0 -2L1.7 -1L1.7 1L0 2L-1.7 1L-1.7 -1Z" fill="#12224180"></path>
        </g>
        <g transform="translate(433 339)">
            <path d="M0 -11L9.5 -5.5L9.5 5.5L0 11L-9.5 5.5L-9.5 -5.5Z" fill="#12224180"></path>
        </g>
        <g transform="translate(68 469)">
            <path d="M0 -10L8.7 -5L8.7 5L0 10L-8.7 5L-8.7 -5Z" fill="#12224180"></path>
        </g>
        <g transform="translate(375 385)">
            <path d="M0 -3L2.6 -1.5L2.6 1.5L0 3L-2.6 1.5L-2.6 -1.5Z" fill="#12224180"></path>
        </g>
        <g transform="translate(186 325)">
            <path d="M0 -7L6.1 -3.5L6.1 3.5L0 7L-6.1 3.5L-6.1 -3.5Z" fill="#12224180"></path>
        </g>
        <g transform="translate(519 761)">
            <path d="M0 -9L7.8 -4.5L7.8 4.5L0 9L-7.8 4.5L-7.8 -4.5Z" fill="#12224180"></path>
        </g>
        <g transform="translate(476 901)">
            <path d="M0 -4L3.5 -2L3.5 2L0 4L-3.5 2L-3.5 -2Z" fill="#12224180"></path>
        </g>
        <g transform="translate(59 100)">
            <path d="M0 -7L6.1 -3.5L6.1 3.5L0 7L-6.1 3.5L-6.1 -3.5Z" fill="#12224180"></path>
        </g>
        <g transform="translate(138 493)">
            <path d="M0 -9L7.8 -4.5L7.8 4.5L0 9L-7.8 4.5L-7.8 -4.5Z" fill="#12224180"></path>
        </g>
        <g transform="translate(249 239)">
            <path d="M0 -10L8.7 -5L8.7 5L0 10L-8.7 5L-8.7 -5Z" fill="#12224180"></path>
        </g>
        <g transform="translate(59 16)">
            <path d="M0 -5L4.3 -2.5L4.3 2.5L0 5L-4.3 2.5L-4.3 -2.5Z" fill="#12224180"></path>
        </g>
        <g transform="translate(209 154)">
            <path d="M0 -3L2.6 -1.5L2.6 1.5L0 3L-2.6 1.5L-2.6 -1.5Z" fill="#12224180"></path>
        </g>
        <g transform="translate(269 943)">
            <path d="M0 -7L6.1 -3.5L6.1 3.5L0 7L-6.1 3.5L-6.1 -3.5Z" fill="#12224180"></path>
        </g>
        <g transform="translate(326 96)">
            <path d="M0 -7L6.1 -3.5L6.1 3.5L0 7L-6.1 3.5L-6.1 -3.5Z" fill="#12224180"></path>
        </g>
        <g transform="translate(361 908)">
            <path d="M0 -14L12.1 -7L12.1 7L0 14L-12.1 7L-12.1 -7Z" fill="#12224180"></path>
        </g>
        <g transform="translate(441 305)">
            <path d="M0 -2L1.7 -1L1.7 1L0 2L-1.7 1L-1.7 -1Z" fill="#12224180"></path>
        </g>
        <g transform="translate(49 519)">
            <path d="M0 -11L9.5 -5.5L9.5 5.5L0 11L-9.5 5.5L-9.5 -5.5Z" fill="#12224180"></path>
        </g>
        <g transform="translate(513 694)">
            <path d="M0 -4L3.5 -2L3.5 2L0 4L-3.5 2L-3.5 -2Z" fill="#12224180"></path>
        </g>
        <g transform="translate(57 842)">
            <path d="M0 -12L10.4 -6L10.4 6L0 12L-10.4 6L-10.4 -6Z" fill="#12224180"></path>
        </g>
        <g transform="translate(76 580)">
            <path d="M0 -13L11.3 -6.5L11.3 6.5L0 13L-11.3 6.5L-11.3 -6.5Z" fill="#12224180"></path>
        </g>
        <g transform="translate(387 100)">
            <path d="M0 -12L10.4 -6L10.4 6L0 12L-10.4 6L-10.4 -6Z" fill="#12224180"></path>
        </g>
        <g transform="translate(147 829)">
            <path d="M0 -7L6.1 -3.5L6.1 3.5L0 7L-6.1 3.5L-6.1 -3.5Z" fill="#12224180"></path>
        </g>
        <g transform="translate(417 912)">
            <path d="M0 -3L2.6 -1.5L2.6 1.5L0 3L-2.6 1.5L-2.6 -1.5Z" fill="#12224180"></path>
        </g>
        <g transform="translate(20 19)">
            <path d="M0 -11L9.5 -5.5L9.5 5.5L0 11L-9.5 5.5L-9.5 -5.5Z" fill="#12224180"></path>
        </g>
        <g transform="translate(417 943)">
            <path d="M0 -5L4.3 -2.5L4.3 2.5L0 5L-4.3 2.5L-4.3 -2.5Z" fill="#12224180"></path>
        </g>
        <g transform="translate(299 170)">
            <path d="M0 -14L12.1 -7L12.1 7L0 14L-12.1 7L-12.1 -7Z" fill="#12224180"></path>
        </g>
        <g transform="translate(423 820)">
            <path d="M0 -7L6.1 -3.5L6.1 3.5L0 7L-6.1 3.5L-6.1 -3.5Z" fill="#12224180"></path>
        </g>
        <g transform="translate(16 344)">
            <path d="M0 -3L2.6 -1.5L2.6 1.5L0 3L-2.6 1.5L-2.6 -1.5Z" fill="#12224180"></path>
        </g>
        <g transform="translate(145 766)">
            <path d="M0 -3L2.6 -1.5L2.6 1.5L0 3L-2.6 1.5L-2.6 -1.5Z" fill="#12224180"></path>
        </g>
        <g transform="translate(276 146)">
            <path d="M0 -11L9.5 -5.5L9.5 5.5L0 11L-9.5 5.5L-9.5 -5.5Z" fill="#12224180"></path>
        </g>
        <g transform="translate(325 942)">
            <path d="M0 -9L7.8 -4.5L7.8 4.5L0 9L-7.8 4.5L-7.8 -4.5Z" fill="#12224180"></path>
        </g>
        <g transform="translate(155 40)">
            <path d="M0 -13L11.3 -6.5L11.3 6.5L0 13L-11.3 6.5L-11.3 -6.5Z" fill="#12224180"></path>
        </g>
        <g transform="translate(128 213)">
            <path d="M0 -13L11.3 -6.5L11.3 6.5L0 13L-11.3 6.5L-11.3 -6.5Z" fill="#12224180"></path>
        </g>
        <g transform="translate(84 369)">
            <path d="M0 -6L5.2 -3L5.2 3L0 6L-5.2 3L-5.2 -3Z" fill="#12224180"></path>
        </g>
        <g transform="translate(351 817)">
            <path d="M0 -6L5.2 -3L5.2 3L0 6L-5.2 3L-5.2 -3Z" fill="#12224180"></path>
        </g>
        <g transform="translate(458 16)">
            <path d="M0 -14L12.1 -7L12.1 7L0 14L-12.1 7L-12.1 -7Z" fill="#12224180"></path>
        </g>
        <g transform="translate(98 727)">
            <path d="M0 -9L7.8 -4.5L7.8 4.5L0 9L-7.8 4.5L-7.8 -4.5Z" fill="#12224180"></path>
        </g>
        <g transform="translate(21 829)">
            <path d="M0 -4L3.5 -2L3.5 2L0 4L-3.5 2L-3.5 -2Z" fill="#12224180"></path>
        </g>
        <g transform="translate(63 221)">
            <path d="M0 -14L12.1 -7L12.1 7L0 14L-12.1 7L-12.1 -7Z" fill="#12224180"></path>
        </g>
        <g transform="translate(197 100)">
            <path d="M0 -3L2.6 -1.5L2.6 1.5L0 3L-2.6 1.5L-2.6 -1.5Z" fill="#12224180"></path>
        </g>
        <g transform="translate(53 384)">
            <path d="M0 -8L6.9 -4L6.9 4L0 8L-6.9 4L-6.9 -4Z" fill="#12224180"></path>
        </g>
        <g transform="translate(350 255)">
            <path d="M0 -10L8.7 -5L8.7 5L0 10L-8.7 5L-8.7 -5Z" fill="#12224180"></path>
        </g>
        <g transform="translate(170 888)">
            <path d="M0 -4L3.5 -2L3.5 2L0 4L-3.5 2L-3.5 -2Z" fill="#12224180"></path>
        </g>
        <g transform="translate(523 292)">
            <path d="M0 -5L4.3 -2.5L4.3 2.5L0 5L-4.3 2.5L-4.3 -2.5Z" fill="#12224180"></path>
        </g>
        <g transform="translate(400 521)">
            <path d="M0 -14L12.1 -7L12.1 7L0 14L-12.1 7L-12.1 -7Z" fill="#12224180"></path>
        </g>
        <g transform="translate(153 91)">
            <path d="M0 -11L9.5 -5.5L9.5 5.5L0 11L-9.5 5.5L-9.5 -5.5Z" fill="#12224180"></path>
        </g>
        <g transform="translate(304 375)">
            <path d="M0 -7L6.1 -3.5L6.1 3.5L0 7L-6.1 3.5L-6.1 -3.5Z" fill="#12224180"></path>
        </g>
        <g transform="translate(252 15)">
            <path d="M0 -14L12.1 -7L12.1 7L0 14L-12.1 7L-12.1 -7Z" fill="#12224180"></path>
        </g>
        <g transform="translate(128 338)">
            <path d="M0 -12L10.4 -6L10.4 6L0 12L-10.4 6L-10.4 -6Z" fill="#12224180"></path>
        </g>
        <g transform="translate(165 515)">
            <path d="M0 -4L3.5 -2L3.5 2L0 4L-3.5 2L-3.5 -2Z" fill="#12224180"></path>
        </g>
        <g transform="translate(16 169)">
            <path d="M0 -1L0.9 -0.5L0.9 0.5L0 1L-0.9 0.5L-0.9 -0.5Z" fill="#12224180"></path>
        </g>
        <g transform="translate(482 594)">
            <path d="M0 -14L12.1 -7L12.1 7L0 14L-12.1 7L-12.1 -7Z" fill="#12224180"></path>
        </g>
    </g>
</svg>