<svg id="visual" viewBox="0 0 900 600" width="900" height="600" xmlns="http://www.w3.org/2000/svg" xmlns:xlink="http://www.w3.org/1999/xlink" version="1.1"><path d="M0 386L21.5 385C43 384 86 382 128.8 385.5C171.7 389 214.3 398 257.2 399.3C300 400.7 343 394.3 385.8 385.5C428.7 376.7 471.3 365.3 514.2 374.3C557 383.3 600 412.7 642.8 417.3C685.7 422 728.3 402 771.2 390.2C814 378.3 857 374.7 878.5 372.8L900 371L900 601L878.5 601C857 601 814 601 771.2 601C728.3 601 685.7 601 642.8 601C600 601 557 601 514.2 601C471.3 601 428.7 601 385.8 601C343 601 300 601 257.2 601C214.3 601 171.7 601 128.8 601C86 601 43 601 21.5 601L0 601Z" fill="#020618"></path><path d="M0 457L21.5 459.8C43 462.7 86 468.3 128.8 465.2C171.7 462 214.3 450 257.2 440.8C300 431.7 343 425.3 385.8 426.3C428.7 427.3 471.3 435.7 514.2 436C557 436.3 600 428.7 642.8 424.3C685.7 420 728.3 419 771.2 426.2C814 433.3 857 448.7 878.5 456.3L900 464L900 601L878.5 601C857 601 814 601 771.2 601C728.3 601 685.7 601 642.8 601C600 601 557 601 514.2 601C471.3 601 428.7 601 385.8 601C343 601 300 601 257.2 601C214.3 601 171.7 601 128.8 601C86 601 43 601 21.5 601L0 601Z" fill="#0e2a3e"></path><path d="M0 470L21.5 468.7C43 467.3 86 464.7 128.8 469.8C171.7 475 214.3 488 257.2 486.2C300 484.3 343 467.7 385.8 460C428.7 452.3 471.3 453.7 514.2 462.7C557 471.7 600 488.3 642.8 491C685.7 493.7 728.3 482.3 771.2 473C814 463.7 857 456.3 878.5 452.7L900 449L900 601L878.5 601C857 601 814 601 771.2 601C728.3 601 685.7 601 642.8 601C600 601 557 601 514.2 601C471.3 601 428.7 601 385.8 601C343 601 300 601 257.2 601C214.3 601 171.7 601 128.8 601C86 601 43 601 21.5 601L0 601Z" fill="#004e62"></path><path d="M0 536L21.5 536C43 536 86 536 128.8 528.5C171.7 521 214.3 506 257.2 503.7C300 501.3 343 511.7 385.8 512.7C428.7 513.7 471.3 505.3 514.2 505.8C557 506.3 600 515.7 642.8 516.2C685.7 516.7 728.3 508.3 771.2 509C814 509.7 857 519.3 878.5 524.2L900 529L900 601L878.5 601C857 601 814 601 771.2 601C728.3 601 685.7 601 642.8 601C600 601 557 601 514.2 601C471.3 601 428.7 601 385.8 601C343 601 300 601 257.2 601C214.3 601 171.7 601 128.8 601C86 601 43 601 21.5 601L0 601Z" fill="#007576"></path><path d="M0 534L21.5 537.7C43 541.3 86 548.7 128.8 549.3C171.7 550 214.3 544 257.2 543.7C300 543.3 343 548.7 385.8 552.5C428.7 556.3 471.3 558.7 514.2 557.7C557 556.7 600 552.3 642.8 548.3C685.7 544.3 728.3 540.7 771.2 542.7C814 544.7 857 552.3 878.5 556.2L900 560L900 601L878.5 601C857 601 814 601 771.2 601C728.3 601 685.7 601 642.8 601C600 601 557 601 514.2 601C471.3 601 428.7 601 385.8 601C343 601 300 601 257.2 601C214.3 601 171.7 601 128.8 601C86 601 43 601 21.5 601L0 601Z" fill="#009966"></path></svg>